<?xml version="1.0" encoding="UTF-8" standalone="no"?>
<!DOCTYPE svg PUBLIC "-//W3C//DTD SVG 1.1//EN"
 "http://www.w3.org/Graphics/SVG/1.1/DTD/svg11.dtd">
<!-- Generated by graphviz version 2.44.0 (0)
 -->
<!-- Title: vars_schema_erd Pages: 1 -->
<svg width="1568pt" height="1535pt"
 viewBox="0.00 0.00 1567.80 1535.30" xmlns="http://www.w3.org/2000/svg" xmlns:xlink="http://www.w3.org/1999/xlink">
<g id="graph0" class="graph" transform="scale(1 1) rotate(0) translate(14.4 1520.9)">
<title>vars_schema_erd</title>
<polygon fill="white" stroke="transparent" points="-14.4,14.4 -14.4,-1520.9 1553.4,-1520.9 1553.4,14.4 -14.4,14.4"/>
<!-- vars_category_type -->
<g id="node1" class="node">
<title>vars_category_type</title>
<polygon fill="#dae8fc" stroke="transparent" points="10.5,-808 10.5,-835 161.5,-835 161.5,-808 10.5,-808"/>
<text text-anchor="start" x="16.5" y="-818.8" font-family="Noto Sans CJK KR" font-weight="bold" font-size="14.00">vars_category_type</text>
<text text-anchor="start" x="16.5" y="-790.8" font-family="Noto Sans CJK KR" font-size="14.00">PK id : int</text>
<text text-anchor="start" x="16.5" y="-763.8" font-family="Noto Sans CJK KR" font-size="14.00">name : varchar</text>
<text text-anchor="start" x="16.5" y="-736.8" font-family="Noto Sans CJK KR" font-size="14.00">is_vulnerability : bool</text>
<text text-anchor="start" x="16.5" y="-709.8" font-family="Noto Sans CJK KR" font-size="14.00">is_immutable : bool</text>
<polygon fill="none" stroke="#6c8ebf" points="9,-699.5 9,-836.5 162,-836.5 162,-699.5 9,-699.5"/>
</g>
<!-- vars_area_category_type_map -->
<g id="node3" class="node">
<title>vars_area_category_type_map</title>
<polygon fill="#fff2cc" stroke="transparent" points="369.5,-795 369.5,-822 598.5,-822 598.5,-795 369.5,-795"/>
<text text-anchor="start" x="375.5" y="-805.8" font-family="Noto Sans CJK KR" font-weight="bold" font-size="14.00">vars_area_category_type_map</text>
<text text-anchor="start" x="375.5" y="-777.8" font-family="Noto Sans CJK KR" font-size="14.00">PK area_id : int</text>
<text text-anchor="start" x="375.5" y="-750.8" font-family="Noto Sans CJK KR" font-size="14.00">PK category_type_id : int</text>
<text text-anchor="start" x="375.5" y="-723.8" font-family="Noto Sans CJK KR" font-size="14.00">created_at : timestamptz</text>
<polygon fill="none" stroke="#d6b656" points="368,-713 368,-823 599,-823 599,-713 368,-713"/>
</g>
<!-- vars_category_type&#45;&gt;vars_area_category_type_map -->
<g id="edge1" class="edge">
<title>vars_category_type&#45;&gt;vars_area_category_type_map</title>
<path fill="none" stroke="#6c8ebf" stroke-width="1.3" d="M162.38,-768C218.51,-768 296.1,-768 360.84,-768"/>
<polygon fill="#6c8ebf" stroke="#6c8ebf" stroke-width="1.3" points="360.86,-770.45 367.86,-768 360.86,-765.55 360.86,-770.45"/>
<text text-anchor="middle" x="269.5" y="-771.8" font-family="Noto Sans CJK KR" font-size="14.00">allows</text>
</g>
<!-- vars_category -->
<g id="node4" class="node">
<title>vars_category</title>
<polygon fill="#d5e8d4" stroke="transparent" points="428.5,-652 428.5,-679 539.5,-679 539.5,-652 428.5,-652"/>
<text text-anchor="start" x="434.5" y="-662.8" font-family="Noto Sans CJK KR" font-weight="bold" font-size="14.00">vars_category</text>
<text text-anchor="start" x="434.5" y="-634.8" font-family="Noto Sans CJK KR" font-size="14.00">PK id : int</text>
<text text-anchor="start" x="434.5" y="-607.8" font-family="Noto Sans CJK KR" font-size="14.00">type_id : int</text>
<text text-anchor="start" x="434.5" y="-580.8" font-family="Noto Sans CJK KR" font-size="14.00">area_id : int</text>
<text text-anchor="start" x="434.5" y="-553.8" font-family="Noto Sans CJK KR" font-size="14.00">name : varchar</text>
<polygon fill="none" stroke="#82b366" points="427,-543.5 427,-680.5 540,-680.5 540,-543.5 427,-543.5"/>
</g>
<!-- vars_category_type&#45;&gt;vars_category -->
<g id="edge3" class="edge">
<title>vars_category_type&#45;&gt;vars_category</title>
<path fill="none" stroke="#82b366" stroke-width="1.3" stroke-dasharray="5,2" d="M162.07,-741.24C235.18,-715.35 335,-680 335,-680 335,-680 380.02,-659.24 420.32,-640.67"/>
<polygon fill="#82b366" stroke="#82b366" stroke-width="1.3" points="421.41,-642.86 426.74,-637.71 419.35,-638.41 421.41,-642.86"/>
<text text-anchor="middle" x="269.5" y="-727.8" font-family="Noto Sans CJK KR" font-size="14.00">type_id</text>
</g>
<!-- vars_inspection_item -->
<g id="node9" class="node">
<title>vars_inspection_item</title>
<polygon fill="#e1d5e7" stroke="transparent" points="820,-744 820,-771 1021,-771 1021,-744 820,-744"/>
<text text-anchor="start" x="845" y="-754.8" font-family="Noto Sans CJK KR" font-weight="bold" font-size="14.00">vars_inspection_item</text>
<text text-anchor="start" x="826" y="-726.8" font-family="Noto Sans CJK KR" font-size="14.00">PK id : int</text>
<text text-anchor="start" x="826" y="-699.8" font-family="Noto Sans CJK KR" font-size="14.00">inspection_code : varchar</text>
<text text-anchor="start" x="826" y="-672.8" font-family="Noto Sans CJK KR" font-size="14.00">inspection_name : varchar</text>
<text text-anchor="start" x="826" y="-645.8" font-family="Noto Sans CJK KR" font-size="14.00">type_id / type_name</text>
<text text-anchor="start" x="826" y="-618.8" font-family="Noto Sans CJK KR" font-size="14.00">area_id / area_name</text>
<text text-anchor="start" x="826" y="-591.8" font-family="Noto Sans CJK KR" font-size="14.00">category_id / category_name</text>
<text text-anchor="start" x="826" y="-564.8" font-family="Noto Sans CJK KR" font-size="14.00">item_id : int</text>
<text text-anchor="start" x="826" y="-537.8" font-family="Noto Sans CJK KR" font-size="14.00">is_locked : bool</text>
<text text-anchor="start" x="826" y="-510.8" font-family="Noto Sans CJK KR" font-size="14.00">is_deleted : bool</text>
<polygon fill="none" stroke="#9673a6" points="818.5,-500 818.5,-772 1021.5,-772 1021.5,-500 818.5,-500"/>
</g>
<!-- vars_category_type&#45;&gt;vars_inspection_item -->
<g id="edge8" class="edge">
<title>vars_category_type&#45;&gt;vars_inspection_item</title>
<path fill="none" stroke="#9673a6" stroke-width="1.3" stroke-dasharray="5,2" d="M162.31,-787.12C245.68,-808.15 368,-839 368,-839 368,-839 599,-839 599,-839 599,-839 719.06,-762.84 812.1,-703.81"/>
<polygon fill="#9673a6" stroke="#9673a6" stroke-width="1.3" points="813.59,-705.77 818.19,-699.95 810.97,-701.63 813.59,-705.77"/>
<text text-anchor="middle" x="483.5" y="-842.8" font-family="Noto Sans CJK KR" font-size="14.00">type_id</text>
</g>
<!-- vars_area -->
<g id="node2" class="node">
<title>vars_area</title>
<polygon fill="#dae8fc" stroke="transparent" points="31.5,-625 31.5,-652 140.5,-652 140.5,-625 31.5,-625"/>
<text text-anchor="start" x="52" y="-635.8" font-family="Noto Sans CJK KR" font-weight="bold" font-size="14.00">vars_area</text>
<text text-anchor="start" x="37.5" y="-607.8" font-family="Noto Sans CJK KR" font-size="14.00">PK id : int</text>
<text text-anchor="start" x="37.5" y="-580.8" font-family="Noto Sans CJK KR" font-size="14.00">name : varchar</text>
<polygon fill="none" stroke="#6c8ebf" points="30,-570.5 30,-653.5 141,-653.5 141,-570.5 30,-570.5"/>
</g>
<!-- vars_area&#45;&gt;vars_area_category_type_map -->
<g id="edge2" class="edge">
<title>vars_area&#45;&gt;vars_area_category_type_map</title>
<path fill="none" stroke="#6c8ebf" stroke-width="1.3" d="M141.03,-622.75C214.18,-637.18 335,-661 335,-661 335,-661 368,-696 368,-696 368,-696 376.51,-701.35 388.9,-709.14"/>
<polygon fill="#6c8ebf" stroke="#6c8ebf" stroke-width="1.3" points="387.62,-711.23 394.85,-712.88 390.22,-707.08 387.62,-711.23"/>
<text text-anchor="middle" x="269.5" y="-664.8" font-family="Noto Sans CJK KR" font-size="14.00">allows</text>
</g>
<!-- vars_area&#45;&gt;vars_category -->
<g id="edge4" class="edge">
<title>vars_area&#45;&gt;vars_category</title>
<path fill="none" stroke="#82b366" stroke-width="1.3" stroke-dasharray="5,2" d="M141.12,-610.61C171.81,-609.82 204,-609 204,-609 204,-609 335,-609 335,-609 335,-609 379.28,-609.9 419.32,-610.72"/>
<polygon fill="#82b366" stroke="#82b366" stroke-width="1.3" points="419.69,-613.17 426.74,-610.87 419.79,-608.27 419.69,-613.17"/>
<text text-anchor="middle" x="269.5" y="-612.8" font-family="Noto Sans CJK KR" font-size="14.00">area_id</text>
</g>
<!-- vars_area&#45;&gt;vars_inspection_item -->
<g id="edge9" class="edge">
<title>vars_area&#45;&gt;vars_inspection_item</title>
<path fill="none" stroke="#9673a6" stroke-width="1.3" stroke-dasharray="5,2" d="M141.11,-592.6C222.97,-563.52 368,-512 368,-512 368,-512 599,-512 599,-512 599,-512 763,-517 763,-517 763,-517 785.2,-533.93 812.84,-555.02"/>
<polygon fill="#9673a6" stroke="#9673a6" stroke-width="1.3" points="811.39,-556.99 818.44,-559.29 814.36,-553.1 811.39,-556.99"/>
<text text-anchor="middle" x="483.5" y="-515.8" font-family="Noto Sans CJK KR" font-size="14.00">area_id</text>
</g>
<!-- vars_category&#45;&gt;vars_inspection_item -->
<g id="edge10" class="edge">
<title>vars_category&#45;&gt;vars_inspection_item</title>
<path fill="none" stroke="#9673a6" stroke-width="1.3" stroke-dasharray="5,2" d="M540.41,-615.09C608.52,-618.85 725.09,-625.29 810.93,-630.03"/>
<polygon fill="#9673a6" stroke="#9673a6" stroke-width="1.3" points="810.97,-632.49 818.1,-630.43 811.24,-627.59 810.97,-632.49"/>
<text text-anchor="middle" x="697.5" y="-630.8" font-family="Noto Sans CJK KR" font-size="14.00">category_id</text>
</g>
<!-- vars_inspection_profile_map -->
<g id="node12" class="node">
<title>vars_inspection_profile_map</title>
<polygon fill="#cce5ff" stroke="transparent" points="812,-440 812,-467 1029,-467 1029,-440 812,-440"/>
<text text-anchor="start" x="818" y="-450.8" font-family="Noto Sans CJK KR" font-weight="bold" font-size="14.00">vars_inspection_profile_map</text>
<text text-anchor="start" x="818" y="-422.8" font-family="Noto Sans CJK KR" font-size="14.00">PK id : int</text>
<text text-anchor="start" x="818" y="-395.8" font-family="Noto Sans CJK KR" font-size="14.00">profile_id : int</text>
<text text-anchor="start" x="818" y="-368.8" font-family="Noto Sans CJK KR" font-size="14.00">category_id : int</text>
<text text-anchor="start" x="818" y="-341.8" font-family="Noto Sans CJK KR" font-size="14.00">area_id : int</text>
<text text-anchor="start" x="818" y="-314.8" font-family="Noto Sans CJK KR" font-size="14.00">inventory_id : int</text>
<text text-anchor="start" x="818" y="-287.8" font-family="Noto Sans CJK KR" font-size="14.00">group_id : int</text>
<text text-anchor="start" x="818" y="-260.8" font-family="Noto Sans CJK KR" font-size="14.00">host_id : int</text>
<polygon fill="none" stroke="#4a86e8" points="810.5,-250 810.5,-468 1029.5,-468 1029.5,-250 810.5,-250"/>
</g>
<!-- vars_category&#45;&gt;vars_inspection_profile_map -->
<g id="edge17" class="edge">
<title>vars_category&#45;&gt;vars_inspection_profile_map</title>
<path fill="none" stroke="#4a86e8" stroke-width="1.3" stroke-dasharray="5,2" d="M540.41,-579.44C606.78,-540.8 719.16,-475.36 804.29,-425.79"/>
<polygon fill="#4a86e8" stroke="#4a86e8" stroke-width="1.3" points="805.55,-427.89 810.37,-422.25 803.09,-423.66 805.55,-427.89"/>
<text text-anchor="middle" x="697.5" y="-526.8" font-family="Noto Sans CJK KR" font-size="14.00">category_id</text>
</g>
<!-- vars_application_type -->
<g id="node5" class="node">
<title>vars_application_type</title>
<polygon fill="#f8cecc" stroke="transparent" points="1.5,-1201 1.5,-1228 170.5,-1228 170.5,-1201 1.5,-1201"/>
<text text-anchor="start" x="7.5" y="-1211.8" font-family="Noto Sans CJK KR" font-weight="bold" font-size="14.00">vars_application_type</text>
<text text-anchor="start" x="7.5" y="-1183.8" font-family="Noto Sans CJK KR" font-size="14.00">PK id : int</text>
<text text-anchor="start" x="7.5" y="-1156.8" font-family="Noto Sans CJK KR" font-size="14.00">name : varchar</text>
<text text-anchor="start" x="7.5" y="-1129.8" font-family="Noto Sans CJK KR" font-size="14.00">is_deleted : bool</text>
<polygon fill="none" stroke="#b85450" points="0,-1119 0,-1229 171,-1229 171,-1119 0,-1119"/>
</g>
<!-- vars_application -->
<g id="node6" class="node">
<title>vars_application</title>
<polygon fill="#f8cecc" stroke="transparent" points="398.5,-1100 398.5,-1127 568.5,-1127 568.5,-1100 398.5,-1100"/>
<text text-anchor="start" x="425" y="-1110.8" font-family="Noto Sans CJK KR" font-weight="bold" font-size="14.00">vars_application</text>
<text text-anchor="start" x="404.5" y="-1082.8" font-family="Noto Sans CJK KR" font-size="14.00">PK id : int</text>
<text text-anchor="start" x="404.5" y="-1055.8" font-family="Noto Sans CJK KR" font-size="14.00">application_type_id : int</text>
<text text-anchor="start" x="404.5" y="-1028.8" font-family="Noto Sans CJK KR" font-size="14.00">name : varchar</text>
<text text-anchor="start" x="404.5" y="-1001.8" font-family="Noto Sans CJK KR" font-size="14.00">is_deleted : bool</text>
<polygon fill="none" stroke="#b85450" points="397.5,-991.5 397.5,-1128.5 569.5,-1128.5 569.5,-991.5 397.5,-991.5"/>
</g>
<!-- vars_application_type&#45;&gt;vars_application -->
<g id="edge5" class="edge">
<title>vars_application_type&#45;&gt;vars_application</title>
<path fill="none" stroke="#b85450" stroke-width="1.3" d="M171.45,-1149.54C235.94,-1130.98 324.48,-1105.49 390.62,-1086.45"/>
<polygon fill="#b85450" stroke="#b85450" stroke-width="1.3" points="391.3,-1088.8 397.35,-1084.51 389.94,-1084.1 391.3,-1088.8"/>
<text text-anchor="middle" x="269.5" y="-1141.8" font-family="Noto Sans CJK KR" font-size="14.00">application_type_id</text>
</g>
<!-- vars_inspection_item_mapping -->
<g id="node10" class="node">
<title>vars_inspection_item_mapping</title>
<polygon fill="#e1d5e7" stroke="transparent" points="1283,-1136 1283,-1163 1516,-1163 1516,-1136 1283,-1136"/>
<text text-anchor="start" x="1289" y="-1146.8" font-family="Noto Sans CJK KR" font-weight="bold" font-size="14.00">vars_inspection_item_mapping</text>
<text text-anchor="start" x="1289" y="-1118.8" font-family="Noto Sans CJK KR" font-size="14.00">PK id : int</text>
<text text-anchor="start" x="1289" y="-1091.8" font-family="Noto Sans CJK KR" font-size="14.00">item_id : int</text>
<text text-anchor="start" x="1289" y="-1064.8" font-family="Noto Sans CJK KR" font-size="14.00">application_type_id : int</text>
<text text-anchor="start" x="1289" y="-1037.8" font-family="Noto Sans CJK KR" font-size="14.00">application_id : int</text>
<text text-anchor="start" x="1289" y="-1010.8" font-family="Noto Sans CJK KR" font-size="14.00">application_family_id : int</text>
<text text-anchor="start" x="1289" y="-983.8" font-family="Noto Sans CJK KR" font-size="14.00">application_version_id : int</text>
<text text-anchor="start" x="1289" y="-956.8" font-family="Noto Sans CJK KR" font-size="14.00">inspection_script : text</text>
<text text-anchor="start" x="1289" y="-929.8" font-family="Noto Sans CJK KR" font-size="14.00">revision_num : int</text>
<text text-anchor="start" x="1289" y="-902.8" font-family="Noto Sans CJK KR" font-size="14.00">is_fix : bool</text>
<text text-anchor="start" x="1289" y="-875.8" font-family="Noto Sans CJK KR" font-size="14.00">is_deleted : bool</text>
<polygon fill="none" stroke="#9673a6" points="1281.5,-865.5 1281.5,-1164.5 1516.5,-1164.5 1516.5,-865.5 1281.5,-865.5"/>
</g>
<!-- vars_application_type&#45;&gt;vars_inspection_item_mapping -->
<g id="edge12" class="edge">
<title>vars_application_type&#45;&gt;vars_inspection_item_mapping</title>
<path fill="none" stroke="#9673a6" stroke-width="1.3" stroke-dasharray="5,2" d="M171.32,-1169.56C243.31,-1165.8 335,-1161 335,-1161 335,-1161 1044,-1122 1044,-1122 1044,-1122 1226,-1100 1226,-1100 1226,-1100 1247.34,-1089.45 1274.99,-1075.79"/>
<polygon fill="#9673a6" stroke="#9673a6" stroke-width="1.3" points="1276.18,-1077.94 1281.37,-1072.64 1274.01,-1073.54 1276.18,-1077.94"/>
<text text-anchor="middle" x="697.5" y="-1148.8" font-family="Noto Sans CJK KR" font-size="14.00">application_type_id</text>
</g>
<!-- vars_application_family -->
<g id="node7" class="node">
<title>vars_application_family</title>
<polygon fill="#f8cecc" stroke="transparent" points="830,-1055 830,-1082 1011,-1082 1011,-1055 830,-1055"/>
<text text-anchor="start" x="836" y="-1065.8" font-family="Noto Sans CJK KR" font-weight="bold" font-size="14.00">vars_application_family</text>
<text text-anchor="start" x="836" y="-1037.8" font-family="Noto Sans CJK KR" font-size="14.00">PK id : int</text>
<text text-anchor="start" x="836" y="-1010.8" font-family="Noto Sans CJK KR" font-size="14.00">application_id : int</text>
<text text-anchor="start" x="836" y="-983.8" font-family="Noto Sans CJK KR" font-size="14.00">name : varchar</text>
<text text-anchor="start" x="836" y="-956.8" font-family="Noto Sans CJK KR" font-size="14.00">is_deleted : bool</text>
<polygon fill="none" stroke="#b85450" points="828.5,-946.5 828.5,-1083.5 1011.5,-1083.5 1011.5,-946.5 828.5,-946.5"/>
</g>
<!-- vars_application&#45;&gt;vars_application_family -->
<g id="edge6" class="edge">
<title>vars_application&#45;&gt;vars_application_family</title>
<path fill="none" stroke="#b85450" stroke-width="1.3" d="M569.57,-1051.19C641.73,-1043.72 745.27,-1032.99 820.91,-1025.16"/>
<polygon fill="#b85450" stroke="#b85450" stroke-width="1.3" points="821.43,-1027.57 828.14,-1024.41 820.93,-1022.69 821.43,-1027.57"/>
<text text-anchor="middle" x="697.5" y="-1048.8" font-family="Noto Sans CJK KR" font-size="14.00">application_id</text>
</g>
<!-- vars_application_version -->
<g id="node8" class="node">
<title>vars_application_version</title>
<polygon fill="#f8cecc" stroke="transparent" points="826,-886 826,-913 1015,-913 1015,-886 826,-886"/>
<text text-anchor="start" x="832" y="-896.8" font-family="Noto Sans CJK KR" font-weight="bold" font-size="14.00">vars_application_version</text>
<text text-anchor="start" x="832" y="-868.8" font-family="Noto Sans CJK KR" font-size="14.00">PK id : int</text>
<text text-anchor="start" x="832" y="-841.8" font-family="Noto Sans CJK KR" font-size="14.00">application_id : int</text>
<text text-anchor="start" x="832" y="-814.8" font-family="Noto Sans CJK KR" font-size="14.00">version : varchar</text>
<polygon fill="none" stroke="#b85450" points="824.5,-804 824.5,-914 1015.5,-914 1015.5,-804 824.5,-804"/>
</g>
<!-- vars_application&#45;&gt;vars_application_version -->
<g id="edge7" class="edge">
<title>vars_application&#45;&gt;vars_application_version</title>
<path fill="none" stroke="#b85450" stroke-width="1.3" d="M569.57,-1020.65C640.67,-987.75 742.26,-940.76 817.58,-905.92"/>
<polygon fill="#b85450" stroke="#b85450" stroke-width="1.3" points="819,-907.96 824.33,-902.79 816.95,-903.51 819,-907.96"/>
<text text-anchor="middle" x="697.5" y="-993.8" font-family="Noto Sans CJK KR" font-size="14.00">application_id</text>
</g>
<!-- vars_application&#45;&gt;vars_inspection_item_mapping -->
<g id="edge13" class="edge">
<title>vars_application&#45;&gt;vars_inspection_item_mapping</title>
<path fill="none" stroke="#9673a6" stroke-width="1.3" stroke-dasharray="5,2" d="M569.62,-1070.66C661.85,-1082.2 796,-1099 796,-1099 796,-1099 1044,-1099 1044,-1099 1044,-1099 1172.04,-1068.62 1274.11,-1044.4"/>
<polygon fill="#9673a6" stroke="#9673a6" stroke-width="1.3" points="1274.86,-1046.74 1281.11,-1042.74 1273.73,-1041.97 1274.86,-1046.74"/>
<text text-anchor="middle" x="920" y="-1102.8" font-family="Noto Sans CJK KR" font-size="14.00">application_id</text>
</g>
<!-- vars_application_family&#45;&gt;vars_inspection_item_mapping -->
<g id="edge14" class="edge">
<title>vars_application_family&#45;&gt;vars_inspection_item_mapping</title>
<path fill="none" stroke="#9673a6" stroke-width="1.3" d="M1011.56,-1015C1085.79,-1015 1191.61,-1015 1273.75,-1015"/>
<polygon fill="#9673a6" stroke="#9673a6" stroke-width="1.3" points="1274.13,-1017.45 1281.13,-1015 1274.13,-1012.55 1274.13,-1017.45"/>
<text text-anchor="middle" x="1151.5" y="-1018.8" font-family="Noto Sans CJK KR" font-size="14.00">application_family_id</text>
</g>
<!-- vars_application_version&#45;&gt;vars_inspection_item_mapping -->
<g id="edge15" class="edge">
<title>vars_application_version&#45;&gt;vars_inspection_item_mapping</title>
<path fill="none" stroke="#9673a6" stroke-width="1.3" stroke-dasharray="5,2" d="M1015.52,-889.91C1089.76,-914.19 1193.73,-948.19 1274.53,-974.62"/>
<polygon fill="#9673a6" stroke="#9673a6" stroke-width="1.3" points="1273.88,-976.98 1281.29,-976.83 1275.4,-972.33 1273.88,-976.98"/>
<text text-anchor="middle" x="1151.5" y="-959.8" font-family="Noto Sans CJK KR" font-size="14.00">application_version_id</text>
</g>
<!-- vars_inspection_item&#45;&gt;vars_inspection_item_mapping -->
<g id="edge11" class="edge">
<title>vars_inspection_item&#45;&gt;vars_inspection_item_mapping</title>
<path fill="none" stroke="#9673a6" stroke-width="1.3" stroke-dasharray="5,2" d="M1021.58,-715.91C1095.65,-774.77 1196.76,-855.11 1275.54,-917.7"/>
<polygon fill="#9673a6" stroke="#9673a6" stroke-width="1.3" points="1274.17,-919.74 1281.18,-922.18 1277.22,-915.9 1274.17,-919.74"/>
<text text-anchor="middle" x="1151.5" y="-874.8" font-family="Noto Sans CJK KR" font-size="14.00">item_id</text>
</g>
<!-- vars_inspection_item_threshold_map -->
<g id="node14" class="node">
<title>vars_inspection_item_threshold_map</title>
<polygon fill="#ffe6cc" stroke="transparent" points="1260,-380 1260,-407 1538,-407 1538,-380 1260,-380"/>
<text text-anchor="start" x="1266" y="-390.8" font-family="Noto Sans CJK KR" font-weight="bold" font-size="14.00">vars_inspection_item_threshold_map</text>
<text text-anchor="start" x="1266" y="-362.8" font-family="Noto Sans CJK KR" font-size="14.00">PK id : bigint</text>
<text text-anchor="start" x="1266" y="-335.8" font-family="Noto Sans CJK KR" font-size="14.00">inspection_item_id : int</text>
<text text-anchor="start" x="1266" y="-308.8" font-family="Noto Sans CJK KR" font-size="14.00">threshold_id : int</text>
<text text-anchor="start" x="1266" y="-281.8" font-family="Noto Sans CJK KR" font-size="14.00">sort_order : int</text>
<text text-anchor="start" x="1266" y="-254.8" font-family="Noto Sans CJK KR" font-size="14.00">is_deleted : bool</text>
<polygon fill="none" stroke="#d79b00" points="1259,-244 1259,-408 1539,-408 1539,-244 1259,-244"/>
</g>
<!-- vars_inspection_item&#45;&gt;vars_inspection_item_threshold_map -->
<g id="edge18" class="edge">
<title>vars_inspection_item&#45;&gt;vars_inspection_item_threshold_map</title>
<path fill="none" stroke="#d79b00" stroke-width="1.3" d="M1021.58,-570.64C1092.57,-524.5 1188.41,-462.21 1265.61,-412.04"/>
<polygon fill="#d79b00" stroke="#d79b00" stroke-width="1.3" points="1267.07,-414.01 1271.6,-408.14 1264.4,-409.9 1267.07,-414.01"/>
<text text-anchor="middle" x="1151.5" y="-530.8" font-family="Noto Sans CJK KR" font-size="14.00">inspection_item_id</text>
</g>
<!-- vars_inspection_profile -->
<g id="node11" class="node">
<title>vars_inspection_profile</title>
<polygon fill="#cce5ff" stroke="transparent" points="394.5,-386 394.5,-413 572.5,-413 572.5,-386 394.5,-386"/>
<text text-anchor="start" x="400.5" y="-396.8" font-family="Noto Sans CJK KR" font-weight="bold" font-size="14.00">vars_inspection_profile</text>
<text text-anchor="start" x="400.5" y="-368.8" font-family="Noto Sans CJK KR" font-size="14.00">PK id : int</text>
<text text-anchor="start" x="400.5" y="-341.8" font-family="Noto Sans CJK KR" font-size="14.00">name : varchar</text>
<text text-anchor="start" x="400.5" y="-314.8" font-family="Noto Sans CJK KR" font-size="14.00">description : text</text>
<polygon fill="none" stroke="#4a86e8" points="393.5,-304 393.5,-414 573.5,-414 573.5,-304 393.5,-304"/>
</g>
<!-- vars_inspection_profile&#45;&gt;vars_inspection_profile_map -->
<g id="edge16" class="edge">
<title>vars_inspection_profile&#45;&gt;vars_inspection_profile_map</title>
<path fill="none" stroke="#4a86e8" stroke-width="1.3" d="M573.74,-359C640.01,-359 730.98,-359 802.91,-359"/>
<polygon fill="#4a86e8" stroke="#4a86e8" stroke-width="1.3" points="803.25,-361.45 810.25,-359 803.25,-356.55 803.25,-361.45"/>
<text text-anchor="middle" x="697.5" y="-362.8" font-family="Noto Sans CJK KR" font-size="14.00">profile_id</text>
</g>
<!-- vars_inspection_items_threshold -->
<g id="node13" class="node">
<title>vars_inspection_items_threshold</title>
<polygon fill="#ffe6cc" stroke="transparent" points="797,-190 797,-217 1043,-217 1043,-190 797,-190"/>
<text text-anchor="start" x="803" y="-200.8" font-family="Noto Sans CJK KR" font-weight="bold" font-size="14.00">vars_inspection_items_threshold</text>
<text text-anchor="start" x="803" y="-172.8" font-family="Noto Sans CJK KR" font-size="14.00">PK id : int</text>
<text text-anchor="start" x="803" y="-145.8" font-family="Noto Sans CJK KR" font-size="14.00">name : varchar</text>
<text text-anchor="start" x="803" y="-118.8" font-family="Noto Sans CJK KR" font-size="14.00">data_type : varchar</text>
<text text-anchor="start" x="803" y="-91.8" font-family="Noto Sans CJK KR" font-size="14.00">judge_type : varchar</text>
<text text-anchor="start" x="803" y="-64.8" font-family="Noto Sans CJK KR" font-size="14.00">op1 / value1</text>
<text text-anchor="start" x="803" y="-37.8" font-family="Noto Sans CJK KR" font-size="14.00">logical_op</text>
<text text-anchor="start" x="803" y="-10.8" font-family="Noto Sans CJK KR" font-size="14.00">op2 / value2</text>
<polygon fill="none" stroke="#d79b00" points="796,0 796,-218 1044,-218 1044,0 796,0"/>
</g>
<!-- vars_inspection_items_threshold&#45;&gt;vars_inspection_item_threshold_map -->
<g id="edge19" class="edge">
<title>vars_inspection_items_threshold&#45;&gt;vars_inspection_item_threshold_map</title>
<path fill="none" stroke="#d79b00" stroke-width="1.3" d="M1044.15,-165.02C1107.79,-193.98 1185.87,-229.5 1252.48,-259.8"/>
<polygon fill="#d79b00" stroke="#d79b00" stroke-width="1.3" points="1251.51,-262.05 1258.89,-262.72 1253.53,-257.59 1251.51,-262.05"/>
<text text-anchor="middle" x="1151.5" y="-247.8" font-family="Noto Sans CJK KR" font-size="14.00">threshold_id</text>
</g>
<!-- vars_threshold_level -->
<g id="node15" class="node">
<title>vars_threshold_level</title>
<polygon fill="#f5f5f5" stroke="transparent" points="6.5,-1397 6.5,-1424 165.5,-1424 165.5,-1397 6.5,-1397"/>
<text text-anchor="start" x="12.5" y="-1407.8" font-family="Noto Sans CJK KR" font-weight="bold" font-size="14.00">vars_threshold_level</text>
<text text-anchor="start" x="12.5" y="-1379.8" font-family="Noto Sans CJK KR" font-size="14.00">PK code : varchar</text>
<text text-anchor="start" x="12.5" y="-1352.8" font-family="Noto Sans CJK KR" font-size="14.00">name : varchar</text>
<polygon fill="none" stroke="#666666" points="5,-1342.5 5,-1425.5 166,-1425.5 166,-1342.5 5,-1342.5"/>
</g>
<!-- vars_threshold -->
<g id="node16" class="node">
<title>vars_threshold</title>
<polygon fill="#f5f5f5" stroke="transparent" points="402.5,-1478 402.5,-1505 565.5,-1505 565.5,-1478 402.5,-1478"/>
<text text-anchor="start" x="431.5" y="-1488.8" font-family="Noto Sans CJK KR" font-weight="bold" font-size="14.00">vars_threshold</text>
<text text-anchor="start" x="408.5" y="-1460.8" font-family="Noto Sans CJK KR" font-size="14.00">PK id : int</text>
<text text-anchor="start" x="408.5" y="-1433.8" font-family="Noto Sans CJK KR" font-size="14.00">group_code : varchar</text>
<text text-anchor="start" x="408.5" y="-1406.8" font-family="Noto Sans CJK KR" font-size="14.00">score_range : int4range</text>
<text text-anchor="start" x="408.5" y="-1379.8" font-family="Noto Sans CJK KR" font-size="14.00">level_code : varchar</text>
<text text-anchor="start" x="408.5" y="-1352.8" font-family="Noto Sans CJK KR" font-size="14.00">level_name : varchar</text>
<text text-anchor="start" x="408.5" y="-1325.8" font-family="Noto Sans CJK KR" font-size="14.00">color_hex : varchar</text>
<text text-anchor="start" x="408.5" y="-1298.8" font-family="Noto Sans CJK KR" font-size="14.00">sort_order : int</text>
<text text-anchor="start" x="408.5" y="-1271.8" font-family="Noto Sans CJK KR" font-size="14.00">is_deleted : bool</text>
<polygon fill="none" stroke="#666666" points="401,-1261.5 401,-1506.5 566,-1506.5 566,-1261.5 401,-1261.5"/>
</g>
<!-- vars_threshold_level&#45;&gt;vars_threshold -->
<g id="edge20" class="edge">
<title>vars_threshold_level&#45;&gt;vars_threshold</title>
<path fill="none" stroke="#666666" stroke-width="1.3" stroke-dasharray="5,2" d="M166.16,-1384C231.97,-1384 325.33,-1384 393.57,-1384"/>
<polygon fill="#666666" stroke="#666666" stroke-width="1.3" points="393.93,-1386.45 400.93,-1384 393.93,-1381.55 393.93,-1386.45"/>
<text text-anchor="middle" x="269.5" y="-1387.8" font-family="Noto Sans CJK KR" font-size="14.00">level_code</text>
</g>
</g>
</svg>
